<?xml version="1.0" encoding="UTF-8"?> <svg xmlns="http://www.w3.org/2000/svg" xmlns:xlink="http://www.w3.org/1999/xlink" 
     width="1200" height="630" 
     zoomAndPan="magnify" viewBox="0 0 810 809.999993" 
     preserveAspectRatio="xMidYMid meet" version="1.0"><defs><clipPath id="db55acb430"><path d="M 432 96.488281 L 527 96.488281 L 527 191 L 432 191 Z M 432 96.488281 " clip-rule="nonzero"></path></clipPath><clipPath id="f1d37fcc00"><path d="M 646 306 L 740.160156 306 L 740.160156 401 L 646 401 Z M 646 306 " clip-rule="nonzero"></path></clipPath><clipPath id="5e37b626bf"><path d="M 69.660156 213 L 638 213 L 638 713.738281 L 69.660156 713.738281 Z M 69.660156 213 " clip-rule="nonzero"></path></clipPath><clipPath id="79ba8187f3"><path d="M 432 96.488281 L 527 96.488281 L 527 191 L 432 191 Z M 432 96.488281 " clip-rule="nonzero"></path></clipPath><clipPath id="416fba5b59"><path d="M 646 306 L 740.160156 306 L 740.160156 401 L 646 401 Z M 646 306 " clip-rule="nonzero"></path></clipPath><clipPath id="99f772eaab"><path d="M 69.660156 213 L 638 213 L 638 713.738281 L 69.660156 713.738281 Z M 69.660156 213 " clip-rule="nonzero"></path></clipPath></defs><path fill="#05df72" d="M 536.144531 189.9375 L 515.160156 197.378906 C 515.160156 210.921875 515.160156 210.960938 515.140625 224.523438 L 536.105469 232.003906 C 539.363281 239.890625 541.007812 243.882812 544.28125 251.765625 L 534.710938 271.859375 C 544.28125 281.453125 544.320312 281.472656 553.894531 291.0625 L 574.007812 281.511719 C 581.890625 284.785156 585.863281 286.429688 593.75 289.707031 L 601.191406 310.691406 C 614.734375 310.691406 614.773438 310.691406 628.335938 310.710938 L 635.816406 289.746094 C 643.703125 286.488281 647.695312 284.84375 655.578125 281.566406 L 675.671875 291.140625 C 685.265625 281.566406 685.285156 281.53125 694.875 271.957031 L 685.324219 251.84375 C 688.597656 243.957031 690.242188 239.988281 693.519531 232.101562 L 714.503906 224.660156 C 714.503906 211.117188 714.503906 211.078125 714.523438 197.515625 L 693.558594 190.054688 C 690.300781 182.167969 688.65625 178.175781 685.378906 170.289062 L 694.953125 150.199219 C 685.378906 140.605469 685.34375 140.585938 675.769531 130.996094 L 655.65625 140.546875 C 647.769531 137.273438 643.800781 135.625 635.914062 132.351562 L 628.472656 111.367188 C 614.929688 111.367188 614.890625 111.367188 601.328125 111.347656 L 593.847656 132.3125 C 585.960938 135.570312 581.96875 137.214844 574.082031 140.488281 L 553.992188 130.917969 C 544.398438 140.488281 544.378906 140.527344 534.789062 150.101562 L 544.339844 170.214844 C 541.066406 178.078125 539.398438 182.050781 536.144531 189.9375 Z M 614.851562 169.226562 C 637.929688 169.246094 656.625 187.960938 656.605469 211.039062 C 656.585938 234.117188 637.871094 252.8125 614.792969 252.792969 C 591.714844 252.773438 573.019531 234.078125 573.039062 211 C 573.058594 187.921875 591.773438 169.207031 614.851562 169.226562 Z M 614.851562 169.226562 " fill-opacity="1" fill-rule="nonzero"></path><path fill="#05df72" d="M 441.433594 321.617188 C 441.433594 329.273438 441.433594 329.292969 441.414062 336.945312 L 453.253906 341.167969 C 455.09375 345.625 456.023438 347.875 457.867188 352.328125 L 452.460938 363.683594 C 457.867188 369.089844 457.882812 369.109375 463.289062 374.535156 L 474.644531 369.148438 C 479.101562 370.988281 481.347656 371.9375 485.804688 373.78125 L 490.011719 385.617188 C 497.664062 385.617188 497.683594 385.617188 505.335938 385.636719 L 509.5625 373.796875 C 514.015625 371.957031 516.265625 371.027344 520.722656 369.1875 L 532.078125 374.59375 C 537.480469 369.1875 537.5 369.167969 542.925781 363.761719 L 537.539062 352.40625 C 539.382812 347.949219 540.332031 345.703125 542.171875 341.246094 L 554.011719 337.042969 C 554.011719 329.386719 554.011719 329.371094 554.03125 321.714844 L 542.191406 317.492188 C 540.351562 313.035156 539.417969 310.789062 537.578125 306.332031 L 542.984375 294.976562 C 537.578125 289.570312 537.558594 289.550781 532.152344 284.125 L 520.800781 289.511719 C 516.34375 287.671875 514.09375 286.722656 509.636719 284.882812 L 505.433594 273.042969 C 497.78125 273.042969 497.761719 273.042969 490.105469 273.023438 L 485.882812 284.863281 C 481.425781 286.703125 479.179688 287.632812 474.722656 289.472656 L 463.367188 284.066406 C 457.960938 289.472656 457.941406 289.492188 452.515625 294.898438 L 457.902344 306.253906 C 456.0625 310.710938 455.113281 312.957031 453.273438 317.414062 Z M 497.722656 305.710938 C 510.761719 305.710938 521.324219 316.289062 521.304688 329.332031 C 521.304688 342.371094 510.722656 352.929688 497.683594 352.910156 C 484.644531 352.910156 474.082031 342.332031 474.101562 329.292969 C 474.121094 316.25 484.703125 305.710938 497.722656 305.710938 Z M 497.722656 305.710938 " fill-opacity="1" fill-rule="nonzero"></path><path fill="#05df72" d="M 376.796875 380.367188 C 376.796875 385.503906 376.796875 385.519531 376.796875 390.675781 L 384.757812 393.503906 C 386 396.507812 386.617188 398.019531 387.859375 401.003906 L 384.234375 408.636719 C 387.878906 412.28125 387.878906 412.28125 391.519531 415.921875 L 399.15625 412.300781 C 402.140625 413.539062 403.652344 414.160156 406.652344 415.417969 L 409.484375 423.382812 C 414.617188 423.382812 414.636719 423.382812 419.792969 423.382812 L 422.621094 415.417969 C 425.625 414.179688 427.132812 413.558594 430.117188 412.320312 L 437.753906 415.941406 C 441.394531 412.300781 441.394531 412.300781 445.039062 408.65625 L 441.414062 401.023438 C 442.65625 398.039062 443.273438 396.527344 444.535156 393.523438 L 452.5 390.695312 C 452.5 385.558594 452.5 385.539062 452.5 380.386719 L 444.535156 377.558594 C 443.292969 374.554688 442.675781 373.042969 441.433594 370.058594 L 445.058594 362.425781 C 441.414062 358.78125 441.414062 358.78125 437.773438 355.140625 L 430.136719 358.761719 C 427.152344 357.523438 425.644531 356.902344 422.640625 355.644531 L 419.808594 347.679688 C 414.675781 347.679688 414.65625 347.679688 409.503906 347.679688 L 406.671875 355.644531 C 403.671875 356.882812 402.160156 357.503906 399.175781 358.742188 L 391.539062 355.121094 C 387.898438 358.761719 387.898438 358.761719 384.253906 362.40625 L 387.878906 370.039062 C 386.636719 373.023438 386.019531 374.535156 384.757812 377.539062 Z M 414.636719 369.691406 C 423.394531 369.691406 430.488281 376.800781 430.488281 385.558594 C 430.488281 394.316406 423.375 401.410156 414.617188 401.410156 C 405.859375 401.410156 398.769531 394.300781 398.769531 385.539062 C 398.769531 376.761719 405.878906 369.671875 414.636719 369.691406 Z M 414.636719 369.691406 " fill-opacity="1" fill-rule="nonzero"></path><path fill="#05df72" d="M 631.476562 365.019531 C 631.476562 359.886719 631.476562 359.867188 631.476562 354.714844 L 623.511719 351.882812 C 622.273438 348.882812 621.652344 347.371094 620.414062 344.386719 L 624.035156 336.75 C 620.394531 333.109375 620.394531 333.109375 616.75 329.464844 L 609.117188 333.089844 C 606.132812 331.847656 604.621094 331.230469 601.617188 329.96875 L 598.789062 322.007812 C 593.652344 322.007812 593.632812 322.007812 588.480469 322.007812 L 585.652344 329.96875 C 582.648438 331.210938 581.136719 331.828125 578.152344 333.070312 L 570.519531 329.445312 C 566.875 333.089844 566.875 333.089844 563.234375 336.730469 L 566.855469 344.367188 C 565.617188 347.351562 564.996094 348.863281 563.738281 351.863281 L 555.773438 354.695312 C 555.773438 359.828125 555.773438 359.847656 555.773438 365.003906 L 563.738281 367.832031 C 564.976562 370.835938 565.597656 372.34375 566.835938 375.328125 L 563.214844 382.964844 C 566.855469 386.605469 566.855469 386.605469 570.5 390.25 L 578.132812 386.625 C 581.117188 387.867188 582.628906 388.484375 585.632812 389.746094 L 588.460938 397.710938 C 593.59375 397.710938 593.613281 397.710938 598.769531 397.710938 L 601.597656 389.746094 C 604.601562 388.503906 606.113281 387.886719 609.097656 386.644531 L 616.730469 390.269531 C 620.375 386.625 620.375 386.625 624.015625 382.984375 L 620.394531 375.347656 C 621.632812 372.363281 622.253906 370.855469 623.511719 367.851562 Z M 593.632812 375.699219 C 584.875 375.699219 577.785156 368.585938 577.785156 359.828125 C 577.785156 351.070312 584.894531 343.980469 593.652344 343.980469 C 602.410156 343.980469 609.503906 351.089844 609.503906 359.847656 C 609.503906 368.605469 602.390625 375.699219 593.632812 375.699219 Z M 593.632812 375.699219 " fill-opacity="1" fill-rule="nonzero"></path><path fill="#05df72" d="M 432.984375 254.945312 L 429.363281 262.578125 C 433.003906 266.222656 433.003906 266.222656 436.648438 269.863281 L 444.28125 266.242188 C 447.265625 267.480469 448.777344 268.101562 451.78125 269.359375 L 454.609375 277.324219 C 459.746094 277.324219 459.765625 277.324219 464.917969 277.324219 L 467.746094 269.359375 C 470.75 268.121094 472.261719 267.5 475.246094 266.261719 L 482.878906 269.882812 C 486.523438 266.242188 486.523438 266.242188 490.164062 262.597656 L 486.542969 254.964844 C 487.78125 251.980469 488.402344 250.46875 489.660156 247.464844 L 497.625 244.636719 C 497.625 239.503906 497.625 239.484375 497.625 234.328125 L 489.660156 231.5 C 488.421875 228.496094 487.800781 226.984375 486.5625 224 L 490.183594 216.367188 C 486.542969 212.722656 486.542969 212.722656 482.898438 209.082031 L 475.265625 212.707031 C 472.28125 211.464844 470.769531 210.84375 467.765625 209.585938 L 464.9375 201.621094 C 459.804688 201.621094 459.785156 201.621094 454.628906 201.621094 L 451.800781 209.585938 C 448.796875 210.824219 447.285156 211.445312 444.300781 212.6875 L 436.667969 209.0625 C 433.023438 212.707031 433.023438 212.707031 429.382812 216.347656 L 433.003906 223.980469 C 431.765625 226.964844 431.144531 228.476562 429.886719 231.480469 L 421.921875 234.308594 C 421.921875 239.445312 421.921875 239.464844 421.921875 244.617188 L 429.886719 247.445312 C 431.125 250.449219 431.746094 251.960938 432.984375 254.945312 Z M 459.785156 223.632812 C 468.542969 223.632812 475.632812 230.746094 475.632812 239.503906 C 475.632812 248.261719 468.523438 255.351562 459.765625 255.351562 C 451.007812 255.351562 443.914062 248.242188 443.914062 239.484375 C 443.914062 230.726562 451.027344 223.613281 459.785156 223.632812 Z M 459.785156 223.632812 " fill-opacity="1" fill-rule="nonzero"></path><g clip-path="url(#db55acb430)"><path fill="#05df72" d="M 445.910156 162.773438 L 441.394531 172.265625 C 445.910156 176.800781 445.929688 176.800781 450.445312 181.335938 L 459.9375 176.839844 C 463.660156 178.390625 465.539062 179.164062 469.257812 180.714844 L 472.765625 190.617188 C 479.160156 190.617188 479.179688 190.617188 485.574219 190.617188 L 489.101562 180.714844 C 492.820312 179.183594 494.699219 178.390625 498.417969 176.859375 L 507.914062 181.375 C 512.449219 176.859375 512.449219 176.839844 516.980469 172.324219 L 512.488281 162.832031 C 514.035156 159.109375 514.8125 157.230469 516.363281 153.511719 L 526.261719 150.003906 C 526.261719 143.609375 526.261719 143.589844 526.261719 137.195312 L 516.363281 133.667969 C 514.832031 129.949219 514.035156 128.070312 512.507812 124.351562 L 517.019531 114.855469 C 512.507812 110.320312 512.488281 110.320312 507.972656 105.789062 L 498.476562 110.28125 C 494.757812 108.734375 492.878906 107.957031 489.15625 106.40625 L 485.652344 96.488281 C 479.257812 96.488281 479.238281 96.488281 472.84375 96.488281 L 469.316406 106.386719 C 465.597656 107.917969 463.71875 108.714844 459.996094 110.242188 L 450.503906 105.730469 C 445.96875 110.242188 445.96875 110.261719 441.433594 114.777344 L 445.929688 124.273438 C 444.378906 127.992188 443.605469 129.871094 442.054688 133.59375 L 432.152344 137.097656 C 432.152344 143.492188 432.152344 143.511719 432.152344 149.90625 L 442.054688 153.453125 C 443.605469 157.171875 444.378906 159.050781 445.910156 162.773438 Z M 479.238281 123.828125 C 490.125 123.828125 498.960938 132.679688 498.960938 143.570312 C 498.960938 154.460938 490.105469 163.296875 479.21875 163.296875 C 468.328125 163.296875 459.492188 154.441406 459.492188 143.550781 C 459.492188 132.644531 468.328125 123.808594 479.238281 123.828125 Z M 479.238281 123.828125 " fill-opacity="1" fill-rule="nonzero"></path></g><g clip-path="url(#f1d37fcc00)"><path fill="#05df72" d="M 740.175781 359.578125 C 740.175781 353.183594 740.175781 353.164062 740.175781 346.769531 L 730.273438 343.242188 C 728.746094 339.523438 727.949219 337.644531 726.417969 333.921875 L 730.933594 324.429688 C 726.417969 319.894531 726.398438 319.894531 721.886719 315.359375 L 712.390625 319.855469 C 708.671875 318.304688 706.792969 317.53125 703.070312 315.980469 L 699.5625 306.078125 C 693.167969 306.078125 693.152344 306.078125 686.757812 306.078125 L 683.230469 315.980469 C 679.507812 317.511719 677.628906 318.304688 673.910156 319.835938 L 664.414062 315.320312 C 659.882812 319.835938 659.882812 319.855469 655.347656 324.371094 L 659.863281 333.863281 C 658.3125 337.585938 657.535156 339.464844 655.988281 343.183594 L 646.085938 346.691406 C 646.085938 353.085938 646.085938 353.105469 646.085938 359.5 L 655.988281 363.027344 C 657.515625 366.746094 658.3125 368.625 659.84375 372.34375 L 655.328125 381.839844 C 659.84375 386.375 659.863281 386.375 664.375 390.90625 L 673.871094 386.414062 C 677.589844 387.960938 679.472656 388.738281 683.191406 390.289062 L 686.699219 400.1875 C 693.09375 400.1875 693.113281 400.1875 699.503906 400.1875 L 703.03125 390.289062 C 706.753906 388.757812 708.632812 387.960938 712.351562 386.433594 L 721.847656 390.945312 C 726.378906 386.433594 726.378906 386.414062 730.914062 381.898438 L 726.398438 372.402344 C 727.949219 368.683594 728.726562 366.804688 730.273438 363.082031 Z M 693.113281 372.867188 C 682.222656 372.867188 673.386719 364.015625 673.386719 353.125 C 673.386719 342.234375 682.242188 333.398438 693.132812 333.398438 C 704.019531 333.398438 712.855469 342.253906 712.855469 353.144531 C 712.855469 364.035156 704.019531 372.886719 693.113281 372.867188 Z M 693.113281 372.867188 " fill-opacity="1" fill-rule="nonzero"></path></g><path fill="#05df72" d="M 374.449219 407.492188 L 369.898438 409.664062 C 368.113281 408.929688 367.203125 408.539062 365.421875 407.804688 L 363.734375 403.039062 C 360.65625 403.039062 360.65625 403.039062 357.574219 403.039062 L 355.886719 407.785156 C 354.105469 408.519531 353.195312 408.890625 351.414062 409.644531 L 346.859375 407.476562 C 344.6875 409.644531 344.667969 409.644531 342.5 411.835938 L 344.667969 416.386719 C 343.933594 418.171875 343.546875 419.082031 342.808594 420.863281 L 338.042969 422.550781 C 338.042969 425.628906 338.042969 425.628906 338.042969 428.710938 L 342.789062 430.398438 C 343.527344 432.179688 343.894531 433.089844 344.648438 434.871094 L 342.460938 439.445312 C 344.628906 441.617188 344.628906 441.636719 346.820312 443.804688 L 351.375 441.636719 C 353.15625 442.371094 354.066406 442.757812 355.847656 443.496094 L 357.535156 448.261719 C 360.617188 448.261719 360.617188 448.261719 363.695312 448.261719 L 365.382812 443.515625 C 367.164062 442.777344 368.074219 442.410156 369.859375 441.652344 L 374.410156 443.824219 C 376.582031 441.652344 376.601562 441.652344 378.773438 439.464844 L 376.601562 434.910156 C 377.335938 433.128906 377.726562 432.21875 378.460938 430.433594 L 383.226562 428.75 C 383.226562 425.667969 383.226562 425.667969 383.226562 422.589844 L 378.480469 420.902344 C 377.746094 419.121094 377.375 418.210938 376.621094 416.425781 L 378.789062 411.875 C 376.621094 409.664062 376.621094 409.664062 374.449219 407.492188 Z M 360.617188 435.125 C 355.382812 435.125 351.140625 430.882812 351.140625 425.628906 C 351.140625 420.378906 355.382812 416.15625 360.636719 416.15625 C 365.867188 416.15625 370.109375 420.398438 370.109375 425.648438 C 370.109375 430.882812 365.847656 435.125 360.617188 435.125 Z M 360.617188 435.125 " fill-opacity="1" fill-rule="nonzero"></path><path fill="#05df72" d="M 501.34375 421.445312 C 501.34375 418.363281 501.34375 418.363281 501.34375 415.285156 L 496.597656 413.597656 C 495.863281 411.816406 495.492188 410.902344 494.738281 409.121094 L 496.910156 404.566406 C 494.738281 402.398438 494.738281 402.378906 492.546875 400.207031 L 487.996094 402.378906 C 486.210938 401.640625 485.300781 401.253906 483.519531 400.519531 L 481.832031 395.753906 C 478.753906 395.753906 478.753906 395.753906 475.671875 395.753906 L 473.984375 400.5 C 472.203125 401.234375 471.292969 401.605469 469.511719 402.359375 L 464.957031 400.1875 C 462.785156 402.359375 462.765625 402.359375 460.597656 404.550781 L 462.765625 409.101562 C 462.03125 410.886719 461.644531 411.796875 460.90625 413.578125 L 456.140625 415.265625 C 456.140625 418.34375 456.140625 418.34375 456.140625 421.425781 L 460.886719 423.109375 C 461.625 424.894531 461.992188 425.804688 462.746094 427.585938 L 460.578125 432.140625 C 462.746094 434.3125 462.746094 434.328125 464.9375 436.5 L 469.492188 434.328125 C 471.273438 435.066406 472.183594 435.453125 473.96875 436.191406 L 475.652344 440.957031 C 478.734375 440.957031 478.734375 440.957031 481.8125 440.957031 L 483.5 436.210938 C 485.28125 435.472656 486.191406 435.105469 487.976562 434.347656 L 492.527344 436.519531 C 494.699219 434.347656 494.71875 434.347656 496.890625 432.160156 L 494.71875 427.605469 C 495.453125 425.824219 495.84375 424.914062 496.578125 423.128906 Z M 478.734375 427.820312 C 473.5 427.820312 469.257812 423.578125 469.257812 418.324219 C 469.257812 413.074219 473.5 408.851562 478.753906 408.851562 C 483.984375 408.851562 488.226562 413.09375 488.226562 418.34375 C 488.226562 423.59375 483.964844 427.820312 478.734375 427.820312 Z M 478.734375 427.820312 " fill-opacity="1" fill-rule="nonzero"></path><path fill="#05df72" d="M 401.152344 299.859375 C 399.367188 300.59375 398.457031 300.964844 396.675781 301.71875 L 392.121094 299.550781 C 389.953125 301.71875 389.933594 301.71875 387.761719 303.910156 L 389.933594 308.460938 C 389.195312 310.246094 388.808594 311.15625 388.070312 312.9375 L 383.304688 314.625 C 383.304688 317.703125 383.304688 317.703125 383.304688 320.785156 L 388.054688 322.472656 C 388.789062 324.253906 389.15625 325.164062 389.914062 326.945312 L 387.742188 331.5 C 389.914062 333.671875 389.914062 333.691406 392.101562 335.859375 L 396.65625 333.691406 C 398.4375 334.425781 399.347656 334.8125 401.132812 335.550781 L 402.816406 340.316406 C 405.898438 340.316406 405.898438 340.316406 408.980469 340.316406 L 410.664062 335.570312 C 412.449219 334.832031 413.359375 334.464844 415.140625 333.710938 L 419.695312 335.878906 C 421.863281 333.710938 421.882812 333.710938 424.054688 331.519531 L 421.882812 326.964844 C 422.621094 325.183594 423.007812 324.273438 423.742188 322.492188 L 428.511719 320.804688 C 428.511719 317.722656 428.511719 317.722656 428.511719 314.644531 L 423.761719 312.957031 C 423.027344 311.175781 422.660156 310.265625 421.902344 308.480469 L 424.074219 303.929688 C 421.902344 301.757812 421.902344 301.738281 419.714844 299.570312 L 415.160156 301.738281 C 413.378906 301.003906 412.46875 300.613281 410.683594 299.878906 L 409 295.113281 C 405.917969 295.113281 405.917969 295.113281 402.835938 295.113281 Z M 415.394531 317.722656 C 415.394531 322.957031 411.148438 327.199219 405.898438 327.199219 C 400.667969 327.199219 396.421875 322.957031 396.421875 317.703125 C 396.421875 312.453125 400.667969 308.230469 405.917969 308.230469 C 411.148438 308.25 415.394531 312.492188 415.394531 317.722656 Z M 415.394531 317.722656 " fill-opacity="1" fill-rule="nonzero"></path><path fill="#05df72" d="M 351.453125 283.078125 L 147.167969 282.945312 C 143.429688 282.945312 140.386719 285.964844 140.386719 289.726562 L 140.210938 524.082031 C 140.210938 527.820312 143.234375 530.863281 146.992188 530.863281 L 575.984375 531.171875 C 579.722656 531.171875 582.765625 528.148438 582.765625 524.390625 L 582.839844 410.476562 L 569.277344 410.476562 L 569.257812 413.34375 L 569.179688 517.609375 L 153.753906 517.316406 L 153.871094 345.023438 L 324.015625 345.140625 L 324.015625 345.179688 L 364.609375 345.199219 L 364.609375 331.636719 L 348.796875 331.617188 C 348.796875 331.597656 348.816406 331.578125 348.816406 331.578125 L 153.929688 331.460938 L 153.949219 296.527344 L 363.871094 296.679688 C 363.871094 296.664062 363.890625 296.644531 363.890625 296.644531 L 375.476562 296.644531 L 375.476562 283.078125 Z M 351.453125 283.078125 " fill-opacity="1" fill-rule="nonzero"></path><g clip-path="url(#5e37b626bf)"><path fill="#05df72" d="M 618.046875 399.878906 L 617.933594 552.777344 L 89.234375 552.410156 L 89.445312 254.265625 C 89.445312 242.621094 98.921875 233.167969 110.566406 233.1875 L 393.941406 233.378906 L 393.941406 233.496094 L 407.796875 233.515625 L 407.816406 214.023438 L 110.585938 213.808594 C 88.265625 213.789062 70.089844 231.945312 70.070312 254.265625 L 69.835938 603.25 C 69.816406 625.574219 87.972656 643.746094 110.296875 643.765625 L 278.480469 643.882812 L 261.003906 693.972656 L 213.898438 693.933594 C 208.550781 693.933594 204.210938 698.273438 204.210938 703.621094 C 204.210938 708.96875 208.550781 713.308594 213.898438 713.308594 L 480.089844 713.503906 C 485.4375 713.503906 489.777344 709.160156 489.777344 703.8125 C 489.777344 698.464844 485.4375 694.125 480.089844 694.125 L 427.96875 694.085938 L 410.546875 643.980469 L 596.773438 644.117188 C 619.09375 644.136719 637.269531 625.980469 637.289062 603.660156 L 637.425781 398.078125 L 618.125 398.058594 Z M 407.15625 693.292969 L 281.773438 693.195312 L 298.941406 644 L 390.046875 644.058594 Z M 617.894531 603.640625 C 617.894531 615.285156 608.417969 624.738281 596.773438 624.71875 L 110.296875 624.371094 C 98.648438 624.371094 89.195312 614.898438 89.214844 603.25 L 89.234375 571.765625 L 617.933594 572.132812 Z M 617.894531 603.640625 " fill-opacity="1" fill-rule="nonzero"></path></g><path fill="#05df72" d="M 184.46875 383.621094 L 320.46875 383.621094 L 320.46875 391.371094 L 184.46875 391.371094 Z M 184.46875 383.621094 " fill-opacity="1" fill-rule="nonzero"></path><path fill="#05df72" d="M 184.449219 428.167969 L 320.449219 428.167969 L 320.449219 435.917969 L 184.449219 435.917969 Z M 184.449219 428.167969 " fill-opacity="1" fill-rule="nonzero"></path><path fill="#05df72" d="M 184.410156 476.609375 L 320.410156 476.609375 L 320.410156 484.359375 L 184.410156 484.359375 Z M 184.410156 476.609375 " fill-opacity="1" fill-rule="nonzero"></path><path fill="#05df72" d="M 356.179688 598.601562 C 356.179688 599.523438 356.089844 600.4375 355.910156 601.34375 C 355.730469 602.246094 355.460938 603.125 355.109375 603.976562 C 354.757812 604.828125 354.324219 605.640625 353.8125 606.40625 C 353.300781 607.171875 352.714844 607.882812 352.0625 608.535156 C 351.414062 609.1875 350.703125 609.769531 349.9375 610.28125 C 349.167969 610.792969 348.359375 611.226562 347.507812 611.578125 C 346.65625 611.933594 345.777344 612.199219 344.871094 612.378906 C 343.96875 612.558594 343.054688 612.648438 342.132812 612.648438 C 341.207031 612.648438 340.296875 612.558594 339.390625 612.378906 C 338.484375 612.199219 337.609375 611.933594 336.753906 611.578125 C 335.902344 611.226562 335.09375 610.792969 334.328125 610.28125 C 333.558594 609.769531 332.851562 609.1875 332.199219 608.535156 C 331.546875 607.882812 330.964844 607.171875 330.449219 606.40625 C 329.9375 605.640625 329.503906 604.828125 329.152344 603.976562 C 328.800781 603.125 328.535156 602.246094 328.351562 601.34375 C 328.171875 600.4375 328.082031 599.523438 328.082031 598.601562 C 328.082031 597.679688 328.171875 596.765625 328.351562 595.859375 C 328.535156 594.957031 328.800781 594.078125 329.152344 593.226562 C 329.503906 592.375 329.9375 591.5625 330.449219 590.796875 C 330.964844 590.03125 331.546875 589.320312 332.199219 588.667969 C 332.851562 588.015625 333.558594 587.433594 334.328125 586.921875 C 335.09375 586.410156 335.902344 585.976562 336.753906 585.621094 C 337.609375 585.269531 338.484375 585.003906 339.390625 584.824219 C 340.296875 584.644531 341.207031 584.554688 342.132812 584.554688 C 343.054688 584.554688 343.96875 584.644531 344.871094 584.824219 C 345.777344 585.003906 346.65625 585.269531 347.507812 585.621094 C 348.359375 585.976562 349.167969 586.410156 349.9375 586.921875 C 350.703125 587.433594 351.414062 588.015625 352.0625 588.667969 C 352.714844 589.320312 353.300781 590.03125 353.8125 590.796875 C 354.324219 591.5625 354.757812 592.375 355.109375 593.226562 C 355.460938 594.078125 355.730469 594.957031 355.910156 595.859375 C 356.089844 596.765625 356.179688 597.679688 356.179688 598.601562 Z M 356.179688 598.601562 " fill-opacity="1" fill-rule="nonzero"></path><path fill="#05df72" d="M 536.144531 189.9375 L 515.160156 197.378906 C 515.160156 210.921875 515.160156 210.960938 515.140625 224.523438 L 536.105469 232.003906 C 539.363281 239.890625 541.007812 243.882812 544.28125 251.765625 L 534.710938 271.859375 C 544.28125 281.453125 544.320312 281.472656 553.894531 291.0625 L 574.007812 281.511719 C 581.890625 284.785156 585.863281 286.429688 593.75 289.707031 L 601.191406 310.691406 C 614.734375 310.691406 614.773438 310.691406 628.335938 310.710938 L 635.816406 289.746094 C 643.703125 286.488281 647.695312 284.84375 655.578125 281.566406 L 675.671875 291.140625 C 685.265625 281.566406 685.285156 281.53125 694.875 271.957031 L 685.324219 251.84375 C 688.597656 243.957031 690.242188 239.988281 693.519531 232.101562 L 714.503906 224.660156 C 714.503906 211.117188 714.503906 211.078125 714.523438 197.515625 L 693.558594 190.054688 C 690.300781 182.167969 688.65625 178.175781 685.378906 170.289062 L 694.953125 150.199219 C 685.378906 140.605469 685.34375 140.585938 675.769531 130.996094 L 655.65625 140.546875 C 647.769531 137.273438 643.800781 135.625 635.914062 132.351562 L 628.472656 111.367188 C 614.929688 111.367188 614.890625 111.367188 601.328125 111.347656 L 593.847656 132.3125 C 585.960938 135.570312 581.96875 137.214844 574.082031 140.488281 L 553.992188 130.917969 C 544.398438 140.488281 544.378906 140.527344 534.789062 150.101562 L 544.339844 170.214844 C 541.066406 178.078125 539.398438 182.050781 536.144531 189.9375 Z M 614.851562 169.226562 C 637.929688 169.246094 656.625 187.960938 656.605469 211.039062 C 656.585938 234.117188 637.871094 252.8125 614.792969 252.792969 C 591.714844 252.773438 573.019531 234.078125 573.039062 211 C 573.058594 187.921875 591.773438 169.207031 614.851562 169.226562 Z M 614.851562 169.226562 " fill-opacity="1" fill-rule="nonzero"></path><path fill="#05df72" d="M 441.433594 321.617188 C 441.433594 329.273438 441.433594 329.292969 441.414062 336.945312 L 453.253906 341.167969 C 455.09375 345.625 456.023438 347.875 457.867188 352.328125 L 452.460938 363.683594 C 457.867188 369.089844 457.882812 369.109375 463.289062 374.535156 L 474.644531 369.148438 C 479.101562 370.988281 481.347656 371.9375 485.804688 373.78125 L 490.011719 385.617188 C 497.664062 385.617188 497.683594 385.617188 505.335938 385.636719 L 509.5625 373.796875 C 514.015625 371.957031 516.265625 371.027344 520.722656 369.1875 L 532.078125 374.59375 C 537.480469 369.1875 537.5 369.167969 542.925781 363.761719 L 537.539062 352.40625 C 539.382812 347.949219 540.332031 345.703125 542.171875 341.246094 L 554.011719 337.042969 C 554.011719 329.386719 554.011719 329.371094 554.03125 321.714844 L 542.191406 317.492188 C 540.351562 313.035156 539.417969 310.789062 537.578125 306.332031 L 542.984375 294.976562 C 537.578125 289.570312 537.558594 289.550781 532.152344 284.125 L 520.800781 289.511719 C 516.34375 287.671875 514.09375 286.722656 509.636719 284.882812 L 505.433594 273.042969 C 497.78125 273.042969 497.761719 273.042969 490.105469 273.023438 L 485.882812 284.863281 C 481.425781 286.703125 479.179688 287.632812 474.722656 289.472656 L 463.367188 284.066406 C 457.960938 289.472656 457.941406 289.492188 452.515625 294.898438 L 457.902344 306.253906 C 456.0625 310.710938 455.113281 312.957031 453.273438 317.414062 Z M 497.722656 305.710938 C 510.761719 305.710938 521.324219 316.289062 521.304688 329.332031 C 521.304688 342.371094 510.722656 352.929688 497.683594 352.910156 C 484.644531 352.910156 474.082031 342.332031 474.101562 329.292969 C 474.121094 316.25 484.703125 305.710938 497.722656 305.710938 Z M 497.722656 305.710938 " fill-opacity="1" fill-rule="nonzero"></path><path fill="#05df72" d="M 376.796875 380.367188 C 376.796875 385.503906 376.796875 385.519531 376.796875 390.675781 L 384.757812 393.503906 C 386 396.507812 386.617188 398.019531 387.859375 401.003906 L 384.234375 408.636719 C 387.878906 412.28125 387.878906 412.28125 391.519531 415.921875 L 399.15625 412.300781 C 402.140625 413.539062 403.652344 414.160156 406.652344 415.417969 L 409.484375 423.382812 C 414.617188 423.382812 414.636719 423.382812 419.792969 423.382812 L 422.621094 415.417969 C 425.625 414.179688 427.132812 413.558594 430.117188 412.320312 L 437.753906 415.941406 C 441.394531 412.300781 441.394531 412.300781 445.039062 408.65625 L 441.414062 401.023438 C 442.65625 398.039062 443.273438 396.527344 444.535156 393.523438 L 452.5 390.695312 C 452.5 385.558594 452.5 385.539062 452.5 380.386719 L 444.535156 377.558594 C 443.292969 374.554688 442.675781 373.042969 441.433594 370.058594 L 445.058594 362.425781 C 441.414062 358.78125 441.414062 358.78125 437.773438 355.140625 L 430.136719 358.761719 C 427.152344 357.523438 425.644531 356.902344 422.640625 355.644531 L 419.808594 347.679688 C 414.675781 347.679688 414.65625 347.679688 409.503906 347.679688 L 406.671875 355.644531 C 403.671875 356.882812 402.160156 357.503906 399.175781 358.742188 L 391.539062 355.121094 C 387.898438 358.761719 387.898438 358.761719 384.253906 362.40625 L 387.878906 370.039062 C 386.636719 373.023438 386.019531 374.535156 384.757812 377.539062 Z M 414.636719 369.691406 C 423.394531 369.691406 430.488281 376.800781 430.488281 385.558594 C 430.488281 394.316406 423.375 401.410156 414.617188 401.410156 C 405.859375 401.410156 398.769531 394.300781 398.769531 385.539062 C 398.769531 376.761719 405.878906 369.671875 414.636719 369.691406 Z M 414.636719 369.691406 " fill-opacity="1" fill-rule="nonzero"></path><path fill="#05df72" d="M 631.476562 365.019531 C 631.476562 359.886719 631.476562 359.867188 631.476562 354.714844 L 623.511719 351.882812 C 622.273438 348.882812 621.652344 347.371094 620.414062 344.386719 L 624.035156 336.75 C 620.394531 333.109375 620.394531 333.109375 616.75 329.464844 L 609.117188 333.089844 C 606.132812 331.847656 604.621094 331.230469 601.617188 329.96875 L 598.789062 322.007812 C 593.652344 322.007812 593.632812 322.007812 588.480469 322.007812 L 585.652344 329.96875 C 582.648438 331.210938 581.136719 331.828125 578.152344 333.070312 L 570.519531 329.445312 C 566.875 333.089844 566.875 333.089844 563.234375 336.730469 L 566.855469 344.367188 C 565.617188 347.351562 564.996094 348.863281 563.738281 351.863281 L 555.773438 354.695312 C 555.773438 359.828125 555.773438 359.847656 555.773438 365.003906 L 563.738281 367.832031 C 564.976562 370.835938 565.597656 372.34375 566.835938 375.328125 L 563.214844 382.964844 C 566.855469 386.605469 566.855469 386.605469 570.5 390.25 L 578.132812 386.625 C 581.117188 387.867188 582.628906 388.484375 585.632812 389.746094 L 588.460938 397.710938 C 593.59375 397.710938 593.613281 397.710938 598.769531 397.710938 L 601.597656 389.746094 C 604.601562 388.503906 606.113281 387.886719 609.097656 386.644531 L 616.730469 390.269531 C 620.375 386.625 620.375 386.625 624.015625 382.984375 L 620.394531 375.347656 C 621.632812 372.363281 622.253906 370.855469 623.511719 367.851562 Z M 593.632812 375.699219 C 584.875 375.699219 577.785156 368.585938 577.785156 359.828125 C 577.785156 351.070312 584.894531 343.980469 593.652344 343.980469 C 602.410156 343.980469 609.503906 351.089844 609.503906 359.847656 C 609.503906 368.605469 602.390625 375.699219 593.632812 375.699219 Z M 593.632812 375.699219 " fill-opacity="1" fill-rule="nonzero"></path><path fill="#05df72" d="M 432.984375 254.945312 L 429.363281 262.578125 C 433.003906 266.222656 433.003906 266.222656 436.648438 269.863281 L 444.28125 266.242188 C 447.265625 267.480469 448.777344 268.101562 451.78125 269.359375 L 454.609375 277.324219 C 459.746094 277.324219 459.765625 277.324219 464.917969 277.324219 L 467.746094 269.359375 C 470.75 268.121094 472.261719 267.5 475.246094 266.261719 L 482.878906 269.882812 C 486.523438 266.242188 486.523438 266.242188 490.164062 262.597656 L 486.542969 254.964844 C 487.78125 251.980469 488.402344 250.46875 489.660156 247.464844 L 497.625 244.636719 C 497.625 239.503906 497.625 239.484375 497.625 234.328125 L 489.660156 231.5 C 488.421875 228.496094 487.800781 226.984375 486.5625 224 L 490.183594 216.367188 C 486.542969 212.722656 486.542969 212.722656 482.898438 209.082031 L 475.265625 212.707031 C 472.28125 211.464844 470.769531 210.84375 467.765625 209.585938 L 464.9375 201.621094 C 459.804688 201.621094 459.785156 201.621094 454.628906 201.621094 L 451.800781 209.585938 C 448.796875 210.824219 447.285156 211.445312 444.300781 212.6875 L 436.667969 209.0625 C 433.023438 212.707031 433.023438 212.707031 429.382812 216.347656 L 433.003906 223.980469 C 431.765625 226.964844 431.144531 228.476562 429.886719 231.480469 L 421.921875 234.308594 C 421.921875 239.445312 421.921875 239.464844 421.921875 244.617188 L 429.886719 247.445312 C 431.125 250.449219 431.746094 251.960938 432.984375 254.945312 Z M 459.785156 223.632812 C 468.542969 223.632812 475.632812 230.746094 475.632812 239.503906 C 475.632812 248.261719 468.523438 255.351562 459.765625 255.351562 C 451.007812 255.351562 443.914062 248.242188 443.914062 239.484375 C 443.914062 230.726562 451.027344 223.613281 459.785156 223.632812 Z M 459.785156 223.632812 " fill-opacity="1" fill-rule="nonzero"></path><g clip-path="url(#79ba8187f3)"><path fill="#05df72" d="M 445.910156 162.773438 L 441.394531 172.265625 C 445.910156 176.800781 445.929688 176.800781 450.445312 181.335938 L 459.9375 176.839844 C 463.660156 178.390625 465.539062 179.164062 469.257812 180.714844 L 472.765625 190.617188 C 479.160156 190.617188 479.179688 190.617188 485.574219 190.617188 L 489.101562 180.714844 C 492.820312 179.183594 494.699219 178.390625 498.417969 176.859375 L 507.914062 181.375 C 512.449219 176.859375 512.449219 176.839844 516.980469 172.324219 L 512.488281 162.832031 C 514.035156 159.109375 514.8125 157.230469 516.363281 153.511719 L 526.261719 150.003906 C 526.261719 143.609375 526.261719 143.589844 526.261719 137.195312 L 516.363281 133.667969 C 514.832031 129.949219 514.035156 128.070312 512.507812 124.351562 L 517.019531 114.855469 C 512.507812 110.320312 512.488281 110.320312 507.972656 105.789062 L 498.476562 110.28125 C 494.757812 108.734375 492.878906 107.957031 489.15625 106.40625 L 485.652344 96.488281 C 479.257812 96.488281 479.238281 96.488281 472.84375 96.488281 L 469.316406 106.386719 C 465.597656 107.917969 463.71875 108.714844 459.996094 110.242188 L 450.503906 105.730469 C 445.96875 110.242188 445.96875 110.261719 441.433594 114.777344 L 445.929688 124.273438 C 444.378906 127.992188 443.605469 129.871094 442.054688 133.59375 L 432.152344 137.097656 C 432.152344 143.492188 432.152344 143.511719 432.152344 149.90625 L 442.054688 153.453125 C 443.605469 157.171875 444.378906 159.050781 445.910156 162.773438 Z M 479.238281 123.828125 C 490.125 123.828125 498.960938 132.679688 498.960938 143.570312 C 498.960938 154.460938 490.105469 163.296875 479.21875 163.296875 C 468.328125 163.296875 459.492188 154.441406 459.492188 143.550781 C 459.492188 132.644531 468.328125 123.808594 479.238281 123.828125 Z M 479.238281 123.828125 " fill-opacity="1" fill-rule="nonzero"></path></g><g clip-path="url(#416fba5b59)"><path fill="#05df72" d="M 740.175781 359.578125 C 740.175781 353.183594 740.175781 353.164062 740.175781 346.769531 L 730.273438 343.242188 C 728.746094 339.523438 727.949219 337.644531 726.417969 333.921875 L 730.933594 324.429688 C 726.417969 319.894531 726.398438 319.894531 721.886719 315.359375 L 712.390625 319.855469 C 708.671875 318.304688 706.792969 317.53125 703.070312 315.980469 L 699.5625 306.078125 C 693.167969 306.078125 693.152344 306.078125 686.757812 306.078125 L 683.230469 315.980469 C 679.507812 317.511719 677.628906 318.304688 673.910156 319.835938 L 664.414062 315.320312 C 659.882812 319.835938 659.882812 319.855469 655.347656 324.371094 L 659.863281 333.863281 C 658.3125 337.585938 657.535156 339.464844 655.988281 343.183594 L 646.085938 346.691406 C 646.085938 353.085938 646.085938 353.105469 646.085938 359.5 L 655.988281 363.027344 C 657.515625 366.746094 658.3125 368.625 659.84375 372.34375 L 655.328125 381.839844 C 659.84375 386.375 659.863281 386.375 664.375 390.90625 L 673.871094 386.414062 C 677.589844 387.960938 679.472656 388.738281 683.191406 390.289062 L 686.699219 400.1875 C 693.09375 400.1875 693.113281 400.1875 699.503906 400.1875 L 703.03125 390.289062 C 706.753906 388.757812 708.632812 387.960938 712.351562 386.433594 L 721.847656 390.945312 C 726.378906 386.433594 726.378906 386.414062 730.914062 381.898438 L 726.398438 372.402344 C 727.949219 368.683594 728.726562 366.804688 730.273438 363.082031 Z M 693.113281 372.867188 C 682.222656 372.867188 673.386719 364.015625 673.386719 353.125 C 673.386719 342.234375 682.242188 333.398438 693.132812 333.398438 C 704.019531 333.398438 712.855469 342.253906 712.855469 353.144531 C 712.855469 364.035156 704.019531 372.886719 693.113281 372.867188 Z M 693.113281 372.867188 " fill-opacity="1" fill-rule="nonzero"></path></g><path fill="#05df72" d="M 374.449219 407.492188 L 369.898438 409.664062 C 368.113281 408.929688 367.203125 408.539062 365.421875 407.804688 L 363.734375 403.039062 C 360.65625 403.039062 360.65625 403.039062 357.574219 403.039062 L 355.886719 407.785156 C 354.105469 408.519531 353.195312 408.890625 351.414062 409.644531 L 346.859375 407.476562 C 344.6875 409.644531 344.667969 409.644531 342.5 411.835938 L 344.667969 416.386719 C 343.933594 418.171875 343.546875 419.082031 342.808594 420.863281 L 338.042969 422.550781 C 338.042969 425.628906 338.042969 425.628906 338.042969 428.710938 L 342.789062 430.398438 C 343.527344 432.179688 343.894531 433.089844 344.648438 434.871094 L 342.460938 439.445312 C 344.628906 441.617188 344.628906 441.636719 346.820312 443.804688 L 351.375 441.636719 C 353.15625 442.371094 354.066406 442.757812 355.847656 443.496094 L 357.535156 448.261719 C 360.617188 448.261719 360.617188 448.261719 363.695312 448.261719 L 365.382812 443.515625 C 367.164062 442.777344 368.074219 442.410156 369.859375 441.652344 L 374.410156 443.824219 C 376.582031 441.652344 376.601562 441.652344 378.773438 439.464844 L 376.601562 434.910156 C 377.335938 433.128906 377.726562 432.21875 378.460938 430.433594 L 383.226562 428.75 C 383.226562 425.667969 383.226562 425.667969 383.226562 422.589844 L 378.480469 420.902344 C 377.746094 419.121094 377.375 418.210938 376.621094 416.425781 L 378.789062 411.875 C 376.621094 409.664062 376.621094 409.664062 374.449219 407.492188 Z M 360.617188 435.125 C 355.382812 435.125 351.140625 430.882812 351.140625 425.628906 C 351.140625 420.378906 355.382812 416.15625 360.636719 416.15625 C 365.867188 416.15625 370.109375 420.398438 370.109375 425.648438 C 370.109375 430.882812 365.847656 435.125 360.617188 435.125 Z M 360.617188 435.125 " fill-opacity="1" fill-rule="nonzero"></path><path fill="#05df72" d="M 501.34375 421.445312 C 501.34375 418.363281 501.34375 418.363281 501.34375 415.285156 L 496.597656 413.597656 C 495.863281 411.816406 495.492188 410.902344 494.738281 409.121094 L 496.910156 404.566406 C 494.738281 402.398438 494.738281 402.378906 492.546875 400.207031 L 487.996094 402.378906 C 486.210938 401.640625 485.300781 401.253906 483.519531 400.519531 L 481.832031 395.753906 C 478.753906 395.753906 478.753906 395.753906 475.671875 395.753906 L 473.984375 400.5 C 472.203125 401.234375 471.292969 401.605469 469.511719 402.359375 L 464.957031 400.1875 C 462.785156 402.359375 462.765625 402.359375 460.597656 404.550781 L 462.765625 409.101562 C 462.03125 410.886719 461.644531 411.796875 460.90625 413.578125 L 456.140625 415.265625 C 456.140625 418.34375 456.140625 418.34375 456.140625 421.425781 L 460.886719 423.109375 C 461.625 424.894531 461.992188 425.804688 462.746094 427.585938 L 460.578125 432.140625 C 462.746094 434.3125 462.746094 434.328125 464.9375 436.5 L 469.492188 434.328125 C 471.273438 435.066406 472.183594 435.453125 473.96875 436.191406 L 475.652344 440.957031 C 478.734375 440.957031 478.734375 440.957031 481.8125 440.957031 L 483.5 436.210938 C 485.28125 435.472656 486.191406 435.105469 487.976562 434.347656 L 492.527344 436.519531 C 494.699219 434.347656 494.71875 434.347656 496.890625 432.160156 L 494.71875 427.605469 C 495.453125 425.824219 495.84375 424.914062 496.578125 423.128906 Z M 478.734375 427.820312 C 473.5 427.820312 469.257812 423.578125 469.257812 418.324219 C 469.257812 413.074219 473.5 408.851562 478.753906 408.851562 C 483.984375 408.851562 488.226562 413.09375 488.226562 418.34375 C 488.226562 423.59375 483.964844 427.820312 478.734375 427.820312 Z M 478.734375 427.820312 " fill-opacity="1" fill-rule="nonzero"></path><path fill="#05df72" d="M 401.152344 299.859375 C 399.367188 300.59375 398.457031 300.964844 396.675781 301.71875 L 392.121094 299.550781 C 389.953125 301.71875 389.933594 301.71875 387.761719 303.910156 L 389.933594 308.460938 C 389.195312 310.246094 388.808594 311.15625 388.070312 312.9375 L 383.304688 314.625 C 383.304688 317.703125 383.304688 317.703125 383.304688 320.785156 L 388.054688 322.472656 C 388.789062 324.253906 389.15625 325.164062 389.914062 326.945312 L 387.742188 331.5 C 389.914062 333.671875 389.914062 333.691406 392.101562 335.859375 L 396.65625 333.691406 C 398.4375 334.425781 399.347656 334.8125 401.132812 335.550781 L 402.816406 340.316406 C 405.898438 340.316406 405.898438 340.316406 408.980469 340.316406 L 410.664062 335.570312 C 412.449219 334.832031 413.359375 334.464844 415.140625 333.710938 L 419.695312 335.878906 C 421.863281 333.710938 421.882812 333.710938 424.054688 331.519531 L 421.882812 326.964844 C 422.621094 325.183594 423.007812 324.273438 423.742188 322.492188 L 428.511719 320.804688 C 428.511719 317.722656 428.511719 317.722656 428.511719 314.644531 L 423.761719 312.957031 C 423.027344 311.175781 422.660156 310.265625 421.902344 308.480469 L 424.074219 303.929688 C 421.902344 301.757812 421.902344 301.738281 419.714844 299.570312 L 415.160156 301.738281 C 413.378906 301.003906 412.46875 300.613281 410.683594 299.878906 L 409 295.113281 C 405.917969 295.113281 405.917969 295.113281 402.835938 295.113281 Z M 415.394531 317.722656 C 415.394531 322.957031 411.148438 327.199219 405.898438 327.199219 C 400.667969 327.199219 396.421875 322.957031 396.421875 317.703125 C 396.421875 312.453125 400.667969 308.230469 405.917969 308.230469 C 411.148438 308.25 415.394531 312.492188 415.394531 317.722656 Z M 415.394531 317.722656 " fill-opacity="1" fill-rule="nonzero"></path><path fill="#05df72" d="M 351.453125 283.078125 L 147.167969 282.945312 C 143.429688 282.945312 140.386719 285.964844 140.386719 289.726562 L 140.210938 524.082031 C 140.210938 527.820312 143.234375 530.863281 146.992188 530.863281 L 575.984375 531.171875 C 579.722656 531.171875 582.765625 528.148438 582.765625 524.390625 L 582.839844 410.476562 L 569.277344 410.476562 L 569.257812 413.34375 L 569.179688 517.609375 L 153.753906 517.316406 L 153.871094 345.023438 L 324.015625 345.140625 L 324.015625 345.179688 L 364.609375 345.199219 L 364.609375 331.636719 L 348.796875 331.617188 C 348.796875 331.597656 348.816406 331.578125 348.816406 331.578125 L 153.929688 331.460938 L 153.949219 296.527344 L 363.871094 296.679688 C 363.871094 296.664062 363.890625 296.644531 363.890625 296.644531 L 375.476562 296.644531 L 375.476562 283.078125 Z M 351.453125 283.078125 " fill-opacity="1" fill-rule="nonzero"></path><g clip-path="url(#99f772eaab)"><path fill="#05df72" d="M 618.046875 399.878906 L 617.933594 552.777344 L 89.234375 552.410156 L 89.445312 254.265625 C 89.445312 242.621094 98.921875 233.167969 110.566406 233.1875 L 393.941406 233.378906 L 393.941406 233.496094 L 407.796875 233.515625 L 407.816406 214.023438 L 110.585938 213.808594 C 88.265625 213.789062 70.089844 231.945312 70.070312 254.265625 L 69.835938 603.25 C 69.816406 625.574219 87.972656 643.746094 110.296875 643.765625 L 278.480469 643.882812 L 261.003906 693.972656 L 213.898438 693.933594 C 208.550781 693.933594 204.210938 698.273438 204.210938 703.621094 C 204.210938 708.96875 208.550781 713.308594 213.898438 713.308594 L 480.089844 713.503906 C 485.4375 713.503906 489.777344 709.160156 489.777344 703.8125 C 489.777344 698.464844 485.4375 694.125 480.089844 694.125 L 427.96875 694.085938 L 410.546875 643.980469 L 596.773438 644.117188 C 619.09375 644.136719 637.269531 625.980469 637.289062 603.660156 L 637.425781 398.078125 L 618.125 398.058594 Z M 407.15625 693.292969 L 281.773438 693.195312 L 298.941406 644 L 390.046875 644.058594 Z M 617.894531 603.640625 C 617.894531 615.285156 608.417969 624.738281 596.773438 624.71875 L 110.296875 624.371094 C 98.648438 624.371094 89.195312 614.898438 89.214844 603.25 L 89.234375 571.765625 L 617.933594 572.132812 Z M 617.894531 603.640625 " fill-opacity="1" fill-rule="nonzero"></path></g><path fill="#05df72" d="M 184.46875 383.621094 L 320.46875 383.621094 L 320.46875 391.371094 L 184.46875 391.371094 Z M 184.46875 383.621094 " fill-opacity="1" fill-rule="nonzero"></path><path fill="#05df72" d="M 184.449219 428.167969 L 320.449219 428.167969 L 320.449219 435.917969 L 184.449219 435.917969 Z M 184.449219 428.167969 " fill-opacity="1" fill-rule="nonzero"></path><path fill="#05df72" d="M 184.410156 476.609375 L 320.410156 476.609375 L 320.410156 484.359375 L 184.410156 484.359375 Z M 184.410156 476.609375 " fill-opacity="1" fill-rule="nonzero"></path><path fill="#05df72" d="M 356.179688 598.601562 C 356.179688 599.523438 356.089844 600.4375 355.910156 601.34375 C 355.730469 602.246094 355.460938 603.125 355.109375 603.976562 C 354.757812 604.828125 354.324219 605.640625 353.8125 606.40625 C 353.300781 607.171875 352.714844 607.882812 352.0625 608.535156 C 351.414062 609.1875 350.703125 609.769531 349.9375 610.28125 C 349.167969 610.792969 348.359375 611.226562 347.507812 611.578125 C 346.65625 611.933594 345.777344 612.199219 344.871094 612.378906 C 343.96875 612.558594 343.054688 612.648438 342.132812 612.648438 C 341.207031 612.648438 340.296875 612.558594 339.390625 612.378906 C 338.484375 612.199219 337.609375 611.933594 336.753906 611.578125 C 335.902344 611.226562 335.09375 610.792969 334.328125 610.28125 C 333.558594 609.769531 332.851562 609.1875 332.199219 608.535156 C 331.546875 607.882812 330.964844 607.171875 330.449219 606.40625 C 329.9375 605.640625 329.503906 604.828125 329.152344 603.976562 C 328.800781 603.125 328.535156 602.246094 328.351562 601.34375 C 328.171875 600.4375 328.082031 599.523438 328.082031 598.601562 C 328.082031 597.679688 328.171875 596.765625 328.351562 595.859375 C 328.535156 594.957031 328.800781 594.078125 329.152344 593.226562 C 329.503906 592.375 329.9375 591.5625 330.449219 590.796875 C 330.964844 590.03125 331.546875 589.320312 332.199219 588.667969 C 332.851562 588.015625 333.558594 587.433594 334.328125 586.921875 C 335.09375 586.410156 335.902344 585.976562 336.753906 585.621094 C 337.609375 585.269531 338.484375 585.003906 339.390625 584.824219 C 340.296875 584.644531 341.207031 584.554688 342.132812 584.554688 C 343.054688 584.554688 343.96875 584.644531 344.871094 584.824219 C 345.777344 585.003906 346.65625 585.269531 347.507812 585.621094 C 348.359375 585.976562 349.167969 586.410156 349.9375 586.921875 C 350.703125 587.433594 351.414062 588.015625 352.0625 588.667969 C 352.714844 589.320312 353.300781 590.03125 353.8125 590.796875 C 354.324219 591.5625 354.757812 592.375 355.109375 593.226562 C 355.460938 594.078125 355.730469 594.957031 355.910156 595.859375 C 356.089844 596.765625 356.179688 597.679688 356.179688 598.601562 Z M 356.179688 598.601562 " fill-opacity="1" fill-rule="nonzero"></path></svg> 